<?xml version="1.0" encoding="UTF-8"?>
<svg version="1.1" viewBox="0 0 2048 2048" width="5906" height="5906" xmlns="http://www.w3.org/2000/svg">
<path transform="translate(0)" d="m0 0h2048v2048h-2048z" fill="#FCFCFC"/>
<path transform="translate(1563,960)" d="m0 0h23l12 3 10 4 12 8 10 10 5 7 11-13 8-7 10-6 15-5 5-1h25l12 3 12 6 9 7 8 8 7 11 5 11 1-13 5-12 9-10 10-6 11-4 5-1h23l14 4 11 6 11 10 5 7-1 3-25 13-7 4h-2l-5-7-6-3-8-1-7 2-1 7 4 3 32 10 12 6 9 8 6 11 2 16-2 12-6 12-9 8-12 6-16 4h-23l-17-4-11-6-10-9-7-10v-4l22-12 10-6h3l5 8 5 4 6 2h12l5-2 2-2v-5l-3-3-36-12-10-5-9-9-4-7v19l-1 7-1 1h-22l-61-8-53-6-1-1v-12l4-16 3-7-26 15-5 3-4-2-6-7-9-4h-16l-10 4-8 9-3 8-1 9 2 11 4 8 8 7 8 3h15l10-4 8-9 6 2 26 15 3 2 1 2h-2l-2 5-11 12-10 7-13 6-13 3h-21l-16-4-12-6-10-8-10-11-8-16-3-11-1-6v-17l3-15 8-16 7-9 8-8 13-8 14-5z" fill="#5C78BB"/>
<path transform="translate(523,840)" d="m0 0h56v1l-43 3-36 4-37 6-31 7-28 8-26 9-26 12-17 9-18 12-11 9-9 8-9 11-8 11-8 17-4 13-1 6v27l3 14 6 17 9 17 12 17 11 13 14 15 10 9 13 11 19 14 24 16 15 9 18 10 16 8 31 15 36 15 21 8 23 8 21 7 28 8 20 6 18 4 16 4 18 4 13 3 24 4 7 2v1h-16l-37-4-31-4-36-6-31-6-29-7-27-7-25-7-41-14-31-12-25-11-29-14-19-10-23-14-12-8-14-10-14-11-15-13-18-18-11-14-8-11-9-16-7-17-4-18-1-8v-13l3-18 6-16 9-16 13-16 9-9 14-11 11-8 19-11 29-14 27-10 31-9 30-7 34-6 41-5 26-2z" fill="#78B5E2"/>
<path transform="translate(656,960)" d="m0 0h23l13 3 14 7 10 8 8 8 8 13 4 11 2 9v23l-4 15-6 12-8 10-7 7-11 7-11 5-13 3h-21l-16-4-12-6-10-8-7-7-9-14-5-14-1-6v-24l3-12-13 2-12 6-6 7-3 11-1 65h-40v-133l1-1h39l1 20 5-8 9-8 12-5 4-1h9l1 33 6-9 11-11 13-8 14-5z" fill="#668DC8"/>
<path transform="translate(1318,961)" d="m0 0h10v2h31l4 9 24 73 4-10 14-43 10-29h83v134h-40l-1-125-16 43-22 59-8 21-1 2h-45l-4-9-18-48-14-37-1 3-14 1-10 3-8 5-4 5-3 8-1 69h-41v-133l1-1h39l1 1 1 17 6-8 7-6 12-5z" fill="#5C78BC"/>
<path transform="translate(941,549)" d="m0 0h15l17 3 17 7 13 9 13 13 8 13 6 13 3 13 1 10h14l5 5 1 2v22l-4 5-4 2h-6v10l-5 69-1 7-3 3-5-1-2-2v-12l5-69 1-5h-162l10 136 2 5 4 2 85 1 3 3v5l-4 3h-83l-8-3-7-6-3-7-5-65-5-74-8-1-5-6v-23l4-5 2-1h14l1-12 5-17 7-13 7-9 6-7 10-8 14-8 15-5z" fill="#EE1F2B"/>
<path transform="translate(1076,554)" d="m0 0h11l8 5 3 5 1 7v193h54l10 4 6 7 3 7 1 14 8 34v7l-2 2h-199l-2-2v-7l8-33 1-14 3-8 5-6 7-4 4-1h58v-197l4-8z" fill="#EE1F2B"/>
<path transform="translate(388,910)" d="m0 0h75l16 3 12 5 10 7 10 10 7 11 5 14 1 7v15l-3 14-7 14-9 10-9 8-16 8-15 3h-34v58h-43z" fill="#5C78BC"/>
<path transform="translate(1015,907)" d="m0 0h25l16 4 14 7 13 11 9 12 3 6v3l-26 15-8 5-3-1-6-10-8-6-8-3h-17l-6 3-4 5-1 6 3 7 6 5 14 6 33 11 17 9 10 9 8 16 2 9v16l-3 12-6 12-11 11-10 6-12 5-15 3h-25l-16-3-15-6-10-7-8-7-8-11-5-10v-3l26-15 9-5 3 1 6 10 9 8 10 4 4 1h18l10-3 4-4 1-3v-7l-3-6-8-5-16-6-24-7-16-8-11-8-8-9-5-12-2-11v-10l2-12 5-12 8-10 10-8 14-7z" fill="#668DC8"/>
<path transform="translate(1160,960)" d="m0 0h25l12 3 12 6 9 7 8 8 7 11 5 12 3 15v16l-1 7-1 1h-94l5 9 8 6 10 3h16l11-4 6-5 6 2 24 14 3 2-2 4-6 7-11 8-13 6-14 3h-24l-14-3-12-5-11-7-11-11-7-11-5-13-2-10v-21l4-17 8-15 12-13 14-9 15-5z" fill="#668DC8"/>
<path transform="translate(723,963)" d="m0 0h45l8 10 11 16 4 6 4-4 13-19 7-9h85v32h-39l-1-29-11 15-13 19-13 18-7 10 2 5 13 19 13 18 16 23 1-16h14l25 1v19h-84l-9-12-14-20v-2l-5 5-14 20-6 9h-47l7-11 24-34 14-20 1-4-14-20-24-34-6-9z" fill="#668DC8"/>
<path transform="translate(1633,995)" d="m0 0 1 2-5 12-2 10v12l77 9 37 5h22l1-7v-21l9 12 7 6 10 5 29 9 6 3 3 3v5l-4 4-4 1h-12l-8-3-7-8-1-4-12 6-21 12h-2l1 7-8 9-13 9-12 5-14 3h-23l-14-3-12-5-10-6-13-13-3-5v-2l-4-2-28-16-4-1-8 9-10 4h-15l-9-4-8-7-4-8-2-12 2-12 6-9 7-6 8-3h16l9 4 8 9 6-2 17-10z" fill="#668DC8"/>
<path transform="translate(1803,960)" d="m0 0h23l14 4 11 6 11 10 5 7-1 3-25 13-7 4h-2l-5-7-6-3-8-1-7 2-1 7 4 3 32 10 12 6 9 8 6 11 2 16-2 12-6 12-9 8-12 6-16 4h-23l-17-4-11-6-10-9-7-10v-4l22-12 10-6h3l5 8 5 4 6 2h12l5-2 2-2v-5l-3-3-36-12-10-5-9-9-4-7v-2h-2l-1-7v-10l2-10 6-12 7-7 10-6 11-4z" fill="#5C78BC"/>
<path transform="translate(1138,582)" d="m0 0h18l2 2v5l-1 1h-15l-2 6-1 2 127-1-3-6-98-1-1-1v-5l2-2h101l3 3 7 13 5 5 1 2v94l-3 3-4-1-1-1-1-60-143-1 1 95 4 6 5 3h124l6-4 3-7 1-25 2-2 5 1 1 2v25l-4 10-8 7-5 2h-127l-8-4-6-8-2-5v-131l4-5 3-3 7-13z" fill="#EE1F2B"/>
<path transform="translate(296,1113)" d="m0 0 8 4 14 9 9 4h2l2-10 4-1 7 4 11 9 18 13 17 11 15 9 18 10 16 8 31 15 36 15 21 8 23 8 21 7 28 8 20 6 18 4 16 4 18 4 13 3 24 4 7 2v1h-16l-37-4-31-4-36-6-31-6-29-7-27-7-25-7-41-14-31-12-25-11-29-14-19-10-23-14-12-8-14-10-9-7 2-4 5-2v-2l5-5z" fill="#5D7ABD"/>
<path transform="translate(947,559)" d="m0 0 14 1 15 4 12 6 13 10 8 9 8 14 4 10 2 10v7h-148v-9l5-17 6-11 8-10 7-7 14-9 13-5 9-2z" fill="#FDFDFD"/>
<path transform="translate(1415,963)" d="m0 0h83v134h-40l-1-125-16 43-32-2-9-1 1-8z" fill="#5C77BB"/>
<path transform="translate(1015,907)" d="m0 0h25l16 4 14 7 13 11 9 12 3 6v3l-26 15-8 5-3-1-6-10-8-6-8-3h-17l-6 3-4 5-1 6 3 7 6 5 14 6 33 11 3 3h-43l-51-1-6-12-3-14v-10l2-12 5-12 8-10 10-8 14-7z" fill="#5C78BB"/>
<path transform="translate(511 1e3)" d="m0 0h6l1 3-7 11-12 12-14 8-13 4-7 1h-34v58h-43v-93l9-1z" fill="#668DC8"/>
<path transform="translate(1194,647)" d="m0 0h18l11 4 9 6 8 8 6 12 2 8v14l-4 13-7 10-9 8-10 5-7 2h-16l-10-3-9-5-8-7-7-11-3-9-1-13 3-14 7-12 7-7 10-6z" fill="#EE1F2B"/>
<path transform="translate(900,964)" d="m0 0h1v133h-1v-19h-25l-14-1v17l-5-5-11-16-24-34-6-9 2-5 13-18 28-40 3-2v30h39z" fill="#668DC8"/>
<path transform="translate(1331,1007)" d="m0 0 21 1 22 2 1-2 12 37 4-10 8-25 1 2 23 1 14 1 3 1-3 11-18 48-8 21-1 2h-45l-4-9-30-80z" fill="#668DC8"/>
<path transform="translate(656,960)" d="m0 0h23l13 3 14 7 10 8 8 8 5 8v2l-12 1-52 1-65 1-46 1h-28v-37h39l1 20 5-8 9-8 12-5 4-1h9l1 33 6-9 11-11 13-8 14-5z" fill="#5C78BB"/>
<path transform="translate(1505,1015)" d="m0 0h1v5l28 2 11 1 1 16 4 9 6 7 8 4 3 1h15l10-4 8-9 6 2 26 15 3 2 1 2h-2l-2 5-11 12-10 7-13 6-13 3h-21l-16-4-12-6-10-8-10-11-8-16-3-11-1-6v-17z" fill="#668EC8"/>
<path transform="translate(1563,960)" d="m0 0h23l12 3 10 4 12 8 10 10 6 9-2 2-11 6-21 12-4-2-6-7-9-4h-16l-10 4-8 9-4 9h-11l-23-2-5-1v-9l4-11 6-11 11-12 9-7 14-7z" fill="#5C78BB"/>
<path transform="translate(296,1113)" d="m0 0 8 4 14 9 9 4h2l2-10 4-1 7 4 11 9 18 13 17 11 15 9 13 7v8h-2l-2 5h-3v2l-11 9-5 2-26-12-22-11-27-16-17-11-14-10-9-7 2-4 5-2v-2l5-5z" fill="#668EC8"/>
<path transform="translate(1633,995)" d="m0 0 1 2-5 12-2 10v22l4 16 3 8-5-2-27-15-3 1-7 8-10 4h-15l-9-4-8-7-4-8-2-12 2-12 6-9 7-6 8-3h16l9 4 8 9 6-2 17-10z" fill="#FDFDFD"/>
<path transform="translate(1247,964)" d="m0 0h1l1 38 57 3 8 1v1l-10 3-8 5-4 5-3 8-1 69h-41z" fill="#678FC9"/>
<path transform="translate(829,441)" d="m0 0 2 2 3 25 5 39 4 6 4 3 35 5 19 2 12 2v2l-37 5-28 4-5 3-4 8-7 52-1 10-2 2-2-7-3-29-3-25-3-9-4-4-14-3-40-5-14-2-1-2 22-3 37-4 10-3 5-6 2-7 6-51 1-9z" fill="#78B5E2"/>
<path transform="translate(997,799)" d="m0 0h9l-1 10v10l1 1h5l2-2 3-18 1-1h11l1 2v18l1 1h5l2-2 2-19h12l1 21h6l2-1 1-19 1-1h11l1 21h6l2-1 1-19 1-1h11l1 21h6l2-1 1-19 1-1h11l2 18 2 3h5l2-3v-18h12l2 6 2 12 2 3h5l2-5-2-16h11l3 8 4 17v5h-179l1-9 5-20z" fill="#FDFDFD"/>
<path transform="translate(1160,960)" d="m0 0h25l12 3 12 6 9 7 8 8 7 11 2 4v3l-46-2-7-3-12-1-10 2-6 1-32-1-12-1 2-6 9-11 9-8 10-6 15-5z" fill="#5C78BB"/>
<path transform="translate(1789,1050)" d="m0 0h3l5 8 5 4 6 2h12l5-2 2-2 10 1 31 7-1 6-6 10-8 7-12 6-16 4h-23l-17-4-11-6-10-9-7-10v-4l22-12z" fill="#668DC8"/>
<path transform="translate(1415,963)" d="m0 0h83v134h-40v-81l30 2 9 1v-55h-82z" fill="#668EC8"/>
<path transform="translate(661,999)" d="m0 0h13l10 4 8 7 5 10 1 4v13l-4 11-7 8-10 5-4 1h-11l-11-4-8-7-5-10-1-4v-13l4-11 8-9 8-4z" fill="#FDFDFD"/>
<path transform="translate(860,965)" d="m0 0h1v129l-5-5-11-16-24-34-6-9 2-5 13-18 28-40z" fill="#FDFDFD"/>
<path transform="translate(854,640)" d="m0 0h190v15h-190z" fill="#FDFDFD"/>
<path transform="translate(1764,1017)" d="m0 0 9 12 7 6 10 5 29 9 6 3 3 3v5l-4 4-4 1h-12l-8-3-7-8-1-4-12 6-21 12h-2v4l-6-2-22-13-4-1-6 5-11 4h-16l-10-3-8-6-5-8v-2l94-1 1-7z" fill="#FDFDFD"/>
<path transform="translate(815,963)" d="m0 0h85v32h-39l-1-29-11 15-10 14-46 1 2-5 13-19z" fill="#5E7BBE"/>
<path transform="translate(607,1066)" d="m0 0 118 5-2 5-10 10-11 7-11 5-13 3h-21l-16-4-12-6-10-8-7-7-5-7z" fill="#5C78BB"/>
<path transform="translate(1079,564)" d="m0 0 7 1 2 2v197h-13v-197z" fill="#FDFDFD"/>
<path transform="translate(1132,606)" d="m0 0h94v25h-95v-24z" fill="#FDFDFD"/>
<path transform="translate(1e3 775)" d="m0 0h149l6 5 2 8-1 1h-163v-7l5-6z" fill="#FDFDFD"/>
<path transform="translate(431,951)" d="m0 0h34l8 5 5 6 3 8v9l-3 9-5 6-8 4h-34z" fill="#FDFDFD"/>
<path transform="translate(1195,655)" d="m0 0h16l12 5 9 8 5 8 2 5v5l-10 1-10 5-7 1-14-6-8-1-11 4-7 3-6-1v-9l4-10 9-10 7-5z" fill="#FDFDFD"/>
<path transform="translate(877,904)" d="m0 0h8l10 4 7 8 3 7v10l-3 8-5 6-9 5h-14l-8-4-7-8-2-5v-14l6-10 7-5z" fill="#5C79BC"/>
<path transform="translate(1474,904)" d="m0 0h8l10 4 8 9 2 6v11l-5 10-8 6-4 2h-14l-8-4-7-8-2-5v-13l4-8 9-8z" fill="#5C79BC"/>
<path transform="translate(388,1052)" d="m0 0 27 2 12 1 3 1v41h-42z" fill="#5C77BB"/>
<path transform="translate(1191,693)" d="m0 0 10 3 10 4 9-1 11-5 6-1 3 1-1 8-4 9-6 8-10 7-9 3h-14l-11-4-8-6-6-7-4-8v-3l12-3 8-4z" fill="#FDFDFD"/>
<path transform="translate(802,1075)" d="m0 0h23l23 1 12 17 1-16h14l25 1v19h-84l-9-12-5-7z" fill="#5C77BB"/>
<path transform="translate(723,963)" d="m0 0h45l8 10 11 16 3 4v3h-45l-9-12-13-19z" fill="#5D7ABC"/>
<path transform="translate(526,1062)" d="m0 0 38 2 1 1v32h-39z" fill="#5C77BB"/>
<path transform="translate(787,770)" d="m0 0 2 2 5 34 3 5 17 3 21 3v2l-26 3-13 3-2 3-4 28-2 8-2-2-3-28-3-9-9-2-11-2-18-2 1-2 33-5 4-2 2-4 3-22 1-13z" fill="#6081C1"/>
<path transform="translate(771,1139)" d="m0 0h22l6 4 2 4v7l-3 6 4 5 1 7-3 6-5 4h-24z" fill="#5E7CBE"/>
<path transform="translate(862,964)" d="m0 0h38v31h-39v-30z" fill="#5C77BB"/>
<path transform="translate(978,1083)" d="m0 0h20l68 4 11 1v2l-15 7-11 3-7 1h-25l-16-3-15-6-10-7z" fill="#5D79BC"/>
<path transform="translate(740,1072)" d="m0 0 34 1 8 1-1 4-13 19h-47l7-11 8-11z" fill="#5C78BB"/>
<path transform="translate(1235,606)" d="m0 0h39l1 1v24h-41v-24z" fill="#FDFDFD"/>
<path transform="translate(1698,1139)" d="m0 0h23l7 6 2 8-3 8-5 5 8 14v2h-6l-6-9-3-5v-2h-10v16h-7z" fill="#6182C2"/>
<path transform="translate(1070,1139)" d="m0 0h23l7 6 2 8-3 8-5 5 8 14v2h-6l-6-9-3-5v-2h-10v16h-7z" fill="#6182C2"/>
<path transform="translate(1352,779)" d="m0 0h2l2 11 3 21 3 2 18 3 12 1 2 1v2l-24 3-10 2-2 5-2 13-1 15-2 2-2-7-3-22-3-6-1-1-30-4-1-2 28-4 5-1 2-7z" fill="#6080C0"/>
<path transform="translate(1557,1139)" d="m0 0h23l7 6 1 2v10l-4 6-3 2 2 5 6 10v2h-7l-8-14v-2h-11v16h-6z" fill="#607FC0"/>
<path transform="translate(647,1139)" d="m0 0h23l6 5 2 4v8l-3 5-3 3h-2l9 18h-7l-9-15-10-1v16h-6z" fill="#5F7EBF"/>
<path transform="translate(1384,1139)" d="m0 0h22l6 4 3 5v8l-4 6-4 4 9 15v1h-7l-9-15-10-1v16h-6z" fill="#5F7EBF"/>
<path transform="translate(1170,995)" d="m0 0 12 1 10 5 6 7 3 8h-57l2-7 8-9 9-4z" fill="#FDFDFD"/>
<path transform="translate(1694,995)" d="m0 0 12 1 10 5 6 7 2 5v3h-56l2-6 4-6 6-5 7-3z" fill="#FDFDFD"/>
<path transform="translate(1293,1144)" d="m0 0h9l6 3 5 6 1 3v9l-3 6-6 5-3 1h-9l-7-4-4-6-1-3v-7l4-8 5-4z" fill="#FDFDFD"/>
<path transform="translate(1651,1144)" d="m0 0h10l7 4 4 6 1 9-3 7-5 5-4 2h-9l-6-3-5-6-1-2v-11l4-6 5-4z" fill="#FDFDFD"/>
<path transform="translate(556,1144)" d="m0 0h10l7 4 4 6 1 8-2 7-4 5-6 3h-9l-6-3-5-6-1-2v-11l4-6 5-4z" fill="#FDFDFD"/>
<path transform="translate(1508,1139)" d="m0 0h21l6 4 3 6v8l-4 6-4 3-3 1h-13v15h-6z" fill="#5F7EBF"/>
<path transform="translate(765,673)" d="m0 0h8l6 3 6 9v8l-3 6-5 5-6 2-8-1-7-4-4-9 1-9 4-6z" fill="#78B5E2"/>
<path transform="translate(1326,667)" d="m0 0 8 1 6 5 3 5v9l-3 6-6 5-2 1h-9l-9-6-2-5v-10l4-6 5-4z" fill="#78B5E2"/>
<path transform="translate(1223,1139)" d="m0 0h5l10 14 10 15 1-29h7v43h-6l-16-23-4-6-1 29h-6z" fill="#6182C2"/>
<path transform="translate(1651,1138)" d="m0 0h11l8 4 7 8 2 6v9l-4 9-8 7-6 2h-10l-10-5-6-8-1-3v-13l4-8 7-6zm0 6-6 4-4 5-1 2v11l4 6 5 4 3 1h9l8-5 3-5 1-9-3-8-6-5-3-1z" fill="#6080C1"/>
<path transform="translate(556,1138)" d="m0 0h11l8 4 7 8 2 7v7l-4 10-8 7-6 2h-10l-10-5-6-8-1-3v-13l4-8 7-6zm0 6-6 4-4 5-1 2v11l4 6 5 4 3 1h9l8-5 3-5 1-8-2-7-4-5-6-3z" fill="#6080C0"/>
<path transform="translate(1292,1138)" d="m0 0h11l10 5 6 8 1 3v13l-6 10-8 5-3 1h-10l-8-3-8-9-2-6v-9l3-8 7-7zm1 6-6 3-4 5-2 5v7l4 8 5 4 3 1h9l6-3 5-6 1-3v-9l-3-6-6-5-3-1z" fill="#5F7FC0"/>
<path transform="translate(896,1139)" d="m0 0h5l9 12 12 18 1-30h6v43h-6l-20-30-1 30h-6z" fill="#5E7DBE"/>
<path transform="translate(885,681)" d="m0 0h6l2 3 4 58-2 4-5 1-4-4-3-42v-18z" fill="#EE1F2B"/>
<path transform="translate(1434,1139)" d="m0 0h26v6h-19v13h18v5h-18v13h19l1 1v5h-27z" fill="#6182C2"/>
<path transform="translate(1121,1139)" d="m0 0h26v6h-19v13h18v5h-18v13h19l1 1v5h-27z" fill="#6183C2"/>
<path transform="translate(978,1139)" d="m0 0h26v6h-19v13h18v5h-18v13h19l1 1v5h-27z" fill="#6182C2"/>
<path transform="translate(850,1139)" d="m0 0h26v6h-20l1 12 18 1v5h-19v13h20v6h-26z" fill="#6080C1"/>
<path transform="translate(698,1139)" d="m0 0h26v5l-1 1h-19v13h18v5h-18v13h19l1 1v5h-26z" fill="#5F7FC0"/>
<path transform="translate(1824,1139)" d="m0 0h25v6h-19v13h18v5h-18v13h19l1 1v5h-26z" fill="#5F7EBF"/>
<path transform="translate(487,1139)" d="m0 0h7l10 28 1 6h2l2-9 9-25h7l-7 21-8 22h-8l-15-42z" fill="#607FC0"/>
<path transform="translate(1021,1139)" d="m0 0h31v6h-12v37h-7v-37h-12z" fill="#6285C3"/>
<path transform="translate(597,1139)" d="m0 0h32v5l-1 1h-12v37h-6v-37h-12l-1-1z" fill="#5F7FC0"/>
<path transform="translate(1774,1139)" d="m0 0h31v6h-13v37h-6v-37h-12z" fill="#6080C1"/>
<path transform="translate(1334,1139)" d="m0 0h31v6h-12v37h-6v-37h-13z" fill="#6080C1"/>
<path transform="translate(1563,1144)" d="m0 0h14l5 5v7l-4 4h-15z" fill="#FDFDFD"/>
<path transform="translate(653,1144)" d="m0 0h14l5 5v6l-5 5h-14z" fill="#FDFDFD"/>
<path transform="translate(1514,1144)" d="m0 0h12l4 2 2 4v6l-5 5h-13z" fill="#FDFDFD"/>
<path transform="translate(1141,1093)" d="m0 0h13l40 3 5 1-1 2-10 2h-24l-14-3-9-4z" fill="#5E7DBE"/>
<path transform="translate(1390,1144)" d="m0 0h13l4 2 2 4-1 7-4 3h-14z" fill="#FDFDFD"/>
<path transform="translate(1705,1144)" d="m0 0h13l5 4v8l-4 4h-14z" fill="#FDFDFD"/>
<path transform="translate(1077,1144)" d="m0 0h13l5 4v8l-4 4h-14z" fill="#FDFDFD"/>
<path transform="translate(1749,1139)" d="m0 0h6v43h-6z" fill="#5F7EBF"/>
<path transform="translate(1608,1139)" d="m0 0h6v43h-6z" fill="#6081C1"/>
<path transform="translate(822,1139)" d="m0 0h6v43h-6z" fill="#5D7ABD"/>
<path transform="translate(777,1163)" d="m0 0h16l3 3 1 5-3 5-2 1h-15z" fill="#FDFDFD"/>
<path transform="translate(777,1144)" d="m0 0h13l5 5-1 6-2 2h-15z" fill="#FDFDFD"/>
<path transform="translate(1244,615)" d="m0 0h21l2 5-3 3h-19l-3-3 1-4z" fill="#EE1F2B"/>
<path transform="translate(1360,813)" d="m0 0 20 3 12 1 2 1v2l-24 3-9 1v-2l4-1 1-5-6-1z" fill="#6B99D0"/>
<path transform="translate(1352,779)" d="m0 0h2l2 11 2 21-2-2v-4l-3 1v-4h2l-3-3-2 6h-1l1-13z" fill="#6D9CD2"/>
<path transform="translate(1169,614)" d="m0 0h11l2 2-1 5-2 1h-9l-2-2v-5z" fill="#EE1F2B"/>
<path transform="translate(1197,614)" d="m0 0h11l2 5-3 3h-9l-2-2v-5z" fill="#EE1F2B"/>
<path transform="translate(1142,614)" d="m0 0h10l2 2-1 5-2 1h-8l-3-2 1-5z" fill="#EE1F2B"/>
<path transform="translate(988,1126)" d="m0 0h6l7 8v1h-6l-5-4-2 4h-6z" fill="#6284C3"/>
<path transform="translate(1348,806)" d="m0 0h1v5l-3 2zm-4 7 2 1-5 4-1-1-4 2h-8v2l-14-1-1-2 28-4z" fill="#6B98CF"/>
<path transform="translate(1168,1176)" d="m0 0h7l-4 15h-5l1-12z" fill="#6081C1"/>
<path transform="translate(544,840)" d="m0 0h35v1l-32 2h-17v-2z" fill="#74ABDC"/>
<path transform="translate(748,816)" d="m0 0h6v2l16 2 6 2v1l-10-1-24-3 1-2z" fill="#6EA0D4"/>
<path transform="translate(1838,1126)" d="m0 0h6l-2 4-4 5h-5l2-5z" fill="#6488C6"/>
<path transform="translate(787,770)" d="m0 0 1 2v20h-2l-1 8h-1l1-16 1-13z" fill="#6FA0D4"/>
<path transform="translate(1317,817)" d="m0 0h10l1 4-14-1-1-2z" fill="#72A8DA"/>
<path transform="translate(816,815)" d="m0 0 12 1 7 1v2l-12 1 2-2-9-2z" fill="#71A6D8"/>
<path transform="translate(544,840)" d="m0 0 6 1-3 2h-17v-2z" fill="#6B97CF"/>
</svg>
